<svg xmlns="http://www.w3.org/2000/svg" viewBox="0 0 190 220" height="220" width="190">
<path style="stroke:#000;stroke-width:0.4" d="m 161.61679,3.6483457 c -1.3987,0.01 -2.7983,0.078 -4.1875,0.2129 -11.49,1.1144 -22.2967,6.2753 -31.6328,13.0664 -15.7719,11.4724 -27.8194,27.6594 -35.7,45.498 h -29.1622 v 13.0664 h 24.0957 c -1.4942,4.356 -2.85,8.7632 -4.1543,13.1797 -4.481,15.1816 -8.3577,30.5335 -12.3769,45.8438 -4.0552,15.4474 -8.2911,30.9516 -15.1289,45.3847 -2.1685,4.5771 -4.5954,9.0356 -7.336,13.2949 -1.5634,2.43 -3.254,4.8233 -5.455,6.6953 -2.6,2.2176 -5.8,3.5986 -8.9141,5.0235 -0.9484,0.4342 -1.8989,0.878 -2.9,1.1562 -1,0.2782 -2.0797,0.3855 -3.0937,0.14 -0.4,-0.097 -0.7927,-0.25 -1.1329,-0.4864 -0.5941,-0.4117 -1,-1.0719 -1.1347,-1.7832 -0.092,-0.51 -0.045,-1.0405 0.1,-1.5371 0.15,-0.4966 0.4,-0.9593 0.7,-1.3789 0.9529,-1.31 2.3927,-2.1597 3.7266,-3.0801 2.4412,-1.6844 4.6691,-3.7564 6.16,-6.32 1.8291,-3.1453 2.4587,-6.935 1.9453,-10.5371 -0.417,-2.9257 -1.5773,-5.7533 -3.4,-8.0762 -1.8271,-2.3228 -4.326,-4.126 -7.1328,-5.0507 -3.2389,-1.0671 -6.8263,-0.9393 -10.0469,0.1816 -3.22,1.12 -6.0725,3.2 -8.2676,5.8144 -4.4,5.2418 -6.0685,12.5178 -5.0234,19.2872 1.2272,7.9497 6.15,15.284 13.1269,19.289 6.2395,3.5822 13.7928,4.4544 20.91,3.4 9.2537,-1.3679 17.8659,-5.8316 25.1,-11.7578 7.2375,-5.9263 13.1884,-13.2798 18.4961,-20.9825 11.9139,-17.2897 20.7889,-36.4968 28.3633,-56.08 6.427,-16.6167 11.9636,-33.5895 16.2,-50.8926 0.06,-0.2432 0.1166,-0.4871 0.1758,-0.73 h 33.1114 v -13.0664 h -29.8321 c 2.3785,-8.4374 5.5785,-16.628 9.1875,-24.6172 1.8327,-4.0569 3.7834,-8.0854 6.3223,-11.7421 2.5389,-3.6568 5.7,-6.9495 9.56,-9.1661 2.2,-1.266 4.6257,-2.1698 7.1328,-2.5937 2.0879,-0.3531 4.2358,-0.3723 6.32,0 0.8,0.1443 1.6112,0.3491 2.3496,0.7 0.7383,0.358 1.413,0.8778 1.8652,1.5625 0.3514,0.5321 0.56,1.1516 0.6484,1.7832 0.06,0.4314 0.062,0.8743 -0.035,1.2988 -0.097,0.4246 -0.3,0.8311 -0.6133,1.1329 -0.3524,0.3384 -0.8253,0.5291 -1.3,0.6328 -0.4775,0.1 -0.9671,0.1276 -1.4532,0.1777 -2.8157,0.29 -5.524,1.4969 -7.6523,3.3633 -2.1282,1.8664 -3.6729,4.379 -4.42,7.1 -0.7471,2.73 -0.7,5.6669 0.092,8.3847 0.7914,2.7179 2.32,5.2123 4.3515,7.1836 1.5422,1.4965 3.4113,2.7128 5.5,3.2 1.59,0.3774 3.2659,0.326 4.8613,-0.027 1.5954,-0.3534 3.1145,-1 4.5371,-1.8 6.4429,-3.6412 10.7685,-10.4268 12.377,-17.65 1.2516,-5.621 0.9,-11.7988 -2.0625,-16.7324 -2.547,-4.23 -6.83,-7.2226 -11.461,-8.9395 -3.9257,-1.4557 -8.12,-2.0618 -12.3164,-2.0469 z"/>
</svg>